<svg id="Layer_1" data-name="Layer 1" xmlns="http://www.w3.org/2000/svg" viewBox="0 0 1000 1000"><defs><style>.cls-1{fill:#9bd4ce;}.cls-2{fill:#9bceed;}.cls-3{fill:#ffe79d;}.cls-4{fill:#c9a4d8;}.cls-5{fill:#f5a5c0;}.cls-6{fill:#ffc107;}.cls-7{fill:#009688;}.cls-8{fill:#e91e63;}.cls-9{fill:#0288d1;}.cls-10{fill:#7b1fa2;}</style></defs><g id="background-pixels"><rect class="cls-1" x="958.85" y="522.15" width="7.34" height="10.56" transform="translate(-1.13 1052.8) rotate(-57.32)"/><rect class="cls-1" x="940.57" y="539.51" width="7.34" height="5.19" transform="translate(-21.89 1044.16) rotate(-57.32)"/><rect class="cls-1" x="955.26" y="566.27" width="7.34" height="5.19" transform="translate(-37.66 1068.84) rotate(-57.32)"/><rect class="cls-1" x="964.47" y="578.29" width="7.34" height="10.56" transform="translate(-45.79 1083.36) rotate(-57.32)"/><rect class="cls-1" x="961.17" y="500.26" width="7.34" height="5.19" transform="translate(20.62 1043.44) rotate(-57.32)"/><rect class="cls-1" x="954.21" y="484.26" width="7.34" height="10.56" transform="translate(28.63 1031.46) rotate(-57.32)"/><rect class="cls-1" x="365.2" y="132.61" width="7.34" height="10.56" transform="translate(53.64 373.91) rotate(-57.32)"/><rect class="cls-1" x="369.39" y="164.1" width="7.34" height="5.19" transform="translate(31.32 390.7) rotate(-57.32)"/><rect class="cls-1" x="342.1" y="164.24" width="7.34" height="5.19" transform="translate(18.65 367.79) rotate(-57.32)"/><rect class="cls-1" x="322.76" y="166.61" width="7.34" height="10.56" transform="translate(5.49 353.84) rotate(-57.32)"/><rect class="cls-1" x="378.65" y="135.2" width="7.34" height="5.19" transform="translate(59.9 385.19) rotate(-57.32)"/><rect class="cls-1" x="398.37" y="127.8" width="7.34" height="10.56" transform="translate(72.94 399.62) rotate(-57.32)"/><rect class="cls-1" x="355.55" y="152.68" width="7.34" height="10.56" transform="translate(32.31 375.02) rotate(-57.32)"/><rect class="cls-1" x="953.83" y="547.23" width="7.34" height="5.19" transform="translate(-22.29 1058.88) rotate(-57.32)"/><rect class="cls-1" x="973.26" y="514.07" width="7.34" height="10.56" transform="translate(12.3 1061.21) rotate(-57.32)"/><rect class="cls-1" x="969.76" y="558.04" width="7.34" height="5.19" transform="translate(-24.06 1077.26) rotate(-57.32)"/><rect class="cls-1" x="971.65" y="539.03" width="7.34" height="10.56" transform="translate(-9.45 1071.34) rotate(-57.32)"/><rect class="cls-1" x="984.71" y="532.68" width="7.34" height="5.19" transform="translate(4.17 1078.17) rotate(-57.32)"/><path class="cls-1" d="M574.13,239.62l-125.31-80-3.4,5.73-35.81-23.28-4.12,6.09,35.81,23.09-3.94,6.27-44.22-27.39-3.94,6.09,12.54,8.05-4.12,6.27-4.3-2.87-3.94,6.09-9.66-6.09-3.94,6.27,20.23,12-4.3,6.27L362,172.85l-3.94,6.08,4.48,2.87-4.12,6.26L346.06,180l-4.12,5.9-12.35-8-3.94,6.26,46,29.54-3.94,6.09L411,247.5A265.45,265.45,0,0,1,574.13,239.62Z"/><path class="cls-1" d="M770,478.25l67.13,43h0l136.77,87.72,3.94-6.27-37.24-22.91,4.12-6.09,3.58,2.33,3.94-6.27L920,549.14l3.94-6.26,3.4,2.15,3.94-6.09,4.3,2.68,3.94-6.08L894,506.36l3.94-6.27,37.23,23.81,3.94-6.09,13.07,8.42,3.94-6.27-7.7-5,3.94-6.09-14-9.13,3.94-6.08-6.8-4.3,3.94-6.26,2.15,1.43,3.93-6.27L710.54,326.62a220.39,220.39,0,0,1,14.32,19.16A261.18,261.18,0,0,1,770,478.25Z"/><rect class="cls-2" x="219.04" y="266.11" width="7.34" height="10.56" transform="translate(-125.98 312.31) rotate(-57.32)"/><rect class="cls-2" x="215.21" y="292.24" width="7.34" height="5.19" transform="translate(-147.47 319.87) rotate(-57.32)"/><rect class="cls-2" x="212.49" y="307.98" width="7.34" height="5.19" transform="translate(-161.97 324.83) rotate(-57.32)"/><rect class="cls-2" x="186.35" y="305.93" width="7.34" height="10.56" transform="translate(-174.53 303.11) rotate(-57.32)"/><rect class="cls-2" x="232.64" y="268.8" width="7.34" height="5.19" transform="translate(-119.72 323.76) rotate(-57.32)"/><rect class="cls-2" x="257.65" y="264.51" width="7.34" height="10.56" transform="translate(-106.86 344.07) rotate(-57.32)"/><rect class="cls-2" x="228.96" y="292.34" width="7.34" height="5.19" transform="translate(-141.23 331.49) rotate(-57.32)"/><rect class="cls-2" x="248.02" y="301.73" width="7.34" height="10.56" transform="translate(-142.62 353.09) rotate(-57.32)"/><rect class="cls-2" x="801.4" y="651.01" width="7.34" height="5.19" transform="translate(-179.76 978.32) rotate(-57.32)"/><rect class="cls-2" x="785.63" y="667.01" width="7.34" height="5.19" transform="translate(-200.49 972.41) rotate(-57.32)"/><rect class="cls-2" x="787.03" y="685.2" width="7.34" height="5.19" transform="translate(-215.16 981.95) rotate(-57.32)"/><rect class="cls-2" x="805.16" y="702.93" width="7.34" height="10.56" transform="translate(-224 1006.61) rotate(-57.32)"/><rect class="cls-2" x="806.07" y="627.67" width="7.34" height="5.19" transform="translate(-157.97 971.51) rotate(-57.32)"/><rect class="cls-2" x="799.11" y="611.85" width="7.34" height="10.56" transform="translate(-150.12 959.62) rotate(-57.32)"/><rect class="cls-2" x="808.61" y="672.87" width="7.34" height="5.19" transform="translate(-194.85 994.45) rotate(-57.32)"/><rect class="cls-2" x="818.5" y="641.57" width="7.34" height="10.56" transform="translate(-166.22 989.61) rotate(-57.32)"/><rect class="cls-2" x="789.17" y="712.79" width="7.34" height="5.19" transform="translate(-237.39 996.45) rotate(-57.32)"/><rect class="cls-2" x="787.9" y="648.16" width="7.34" height="10.56" transform="translate(-185.84 966.88) rotate(-57.32)"/><rect class="cls-2" x="829.52" y="660.23" width="7.34" height="5.19" transform="translate(-174.59 1006.23) rotate(-57.32)"/><path class="cls-2" d="M322.61,304.6,295,286.7,291.1,293l-15.57-10-3.94,6.27,9.84,6.26-4.11,6.09-26.68-17.9-3.94,6.26,25.6,16.47-3.93,6.09L297,330.38l-3.94,6.27L256.19,313l-3.94,6.08-21.66-12-4.11,6.27,20.58,13.06-3.94,6.27-12.35-8.06-3.94,6.27-23.45-15L199.44,322,219,334.68,215,340.77,171.7,312.66l-3.94,6.09,98.64,64.08A262.1,262.1,0,0,1,322.61,304.6Z"/><path class="cls-2" d="M755.12,695.58l3.94-6.27L777,701l3.94-6.09-4.12-2.68,3.94-6.09-17.9-11.28,4.83-5.55,9.85,6.27,3.93-6.09L746.7,647.07l3.94-6.27,25.42,16.29L780,651l-8-5.19,3.93-6.26,4.66,3,4.12-6.09,6.26,3.94,3.94-6.26-21.12-13.43,3.93-6.27,6.81,4.48,3.94-6.27-35.81-22.91a263.1,263.1,0,0,1-44.93,75.9Z"/><rect class="cls-3" x="83.15" y="414.28" width="7.34" height="10.56" transform="translate(-313.2 266.09) rotate(-57.32)"/><rect class="cls-3" x="69.49" y="434.64" width="7.34" height="5.19" transform="translate(-334.36 262.73) rotate(-57.32)"/><rect class="cls-3" x="49.7" y="439.08" width="7.34" height="5.19" transform="translate(-347.21 248.12) rotate(-57.32)"/><rect class="cls-3" x="29.11" y="440.47" width="7.34" height="10.56" transform="translate(-360.11 232.66) rotate(-57.32)"/><rect class="cls-3" x="74.46" y="402.53" width="7.34" height="5.19" transform="translate(-305.05 252.14) rotate(-57.32)"/><rect class="cls-3" x="147.66" y="429.26" width="7.34" height="10.56" transform="translate(-296.14 327.29) rotate(-57.32)"/><rect class="cls-3" x="45.31" y="409.93" width="7.34" height="5.19" transform="translate(-324.69 231.01) rotate(-57.32)"/><rect class="cls-3" x="84.68" y="432.87" width="7.34" height="10.56" transform="translate(-328.14 275.94) rotate(-57.32)"/><rect class="cls-3" x="10.21" y="445.94" width="7.34" height="10.56" transform="translate(-373.4 219.26) rotate(-57.32)"/><rect class="cls-3" x="108.94" y="404.6" width="7.34" height="10.56" transform="matrix(0.54, -0.84, 0.84, 0.54, -293.19, 283.35)"/><rect class="cls-3" x="678.47" y="796.09" width="7.34" height="10.56" transform="translate(-360.69 942.83) rotate(-57.32)"/><rect class="cls-3" x="645.3" y="812.37" width="7.34" height="5.19" transform="translate(-387.39 921.17) rotate(-57.32)"/><rect class="cls-3" x="679.19" y="842.83" width="7.34" height="5.19" transform="translate(-397.44 963.7) rotate(-57.32)"/><rect class="cls-3" x="664.3" y="839.42" width="7.34" height="10.56" transform="translate(-403.68 950.84) rotate(-57.32)"/><rect class="cls-3" x="670.23" y="775.61" width="7.34" height="5.19" transform="translate(-344.99 925.23) rotate(-57.32)"/><rect class="cls-3" x="665.73" y="753.07" width="7.34" height="10.56" transform="translate(-330.34 912.31) rotate(-57.32)"/><rect class="cls-3" x="671.69" y="820.47" width="7.34" height="5.19" transform="translate(-382.07 947.11) rotate(-57.32)"/><rect class="cls-3" x="694.26" y="788.75" width="7.34" height="10.56" transform="translate(-347.25 952.75) rotate(-57.32)"/><rect class="cls-3" x="674.38" y="865.77" width="7.34" height="5.19" transform="translate(-418.96 970.21) rotate(-57.32)"/><rect class="cls-3" x="662.76" y="794.62" width="7.34" height="10.56" transform="translate(-366.68 928.93) rotate(-57.32)"/><rect class="cls-3" x="701.52" y="813.55" width="7.34" height="5.19" transform="translate(-362.52 969.03) rotate(-57.32)"/><path class="cls-3" d="M484.44,757.34,659.16,869.59l3.94-6.27,8.06,5.19,4.12-6.26-34.73-22.2,3.93-6.09L652,838.8l3.94-6.27-19.33-12.35,3.94-6.27-10-6.44,3.94-6.27,5.55,3.58L644,798.7l-23.81-15.4,4.29-6.62-21.84-14,3.94-5.73,56.21,35.81,3.94-6.27-6.44-4.12,3.94-6.08-5.73-3.76,3.94-6.09-26.86-17.9,3.76-6.09,6.45,4.12,3.94-6.26-19.87-12.72A262.79,262.79,0,0,1,484.44,757.34Z"/><path class="cls-3" d="M242.77,480.4,178,438.69,174,445l11.28,7.34-3.76,6.09-58.36-37.06-3.94,6.27L159,452.29l-3.94,6.27L96.69,421.32l-4.12,6.27,25.78,16.47-3.94,6.09L104,443.52l-3.94,6.27,15.22,9.66-3.94,6.27-26.5-17-3.94,5.73L69.48,448l-3.23,6.44,12.54,8.06-3.94,6.08L54.08,454.44l-3.94,6.27-4.65-3-3.94,6.09,10,6.45-3.93,6.26,228.6,146.62A261.4,261.4,0,0,1,242.77,480.4Z"/><rect class="cls-4" x="887.59" y="607.62" width="7.34" height="10.56" transform="translate(-105.85 1032.14) rotate(-57.32)"/><rect class="cls-4" x="874.92" y="628.18" width="7.34" height="5.19" transform="translate(-126.72 1029.7) rotate(-57.32)"/><rect class="cls-4" x="872.36" y="644.02" width="7.34" height="5.19" transform="translate(-141.24 1034.84) rotate(-57.32)"/><rect class="cls-4" x="869.06" y="595.63" width="7.34" height="10.56" transform="translate(-104.28 1011.02) rotate(-57.32)"/><rect class="cls-4" x="903.3" y="611.78" width="7.34" height="5.19" transform="translate(-99.87 1046.04) rotate(-57.32)"/><rect class="cls-4" x="918.1" y="600.88" width="7.34" height="10.56" transform="translate(-86.14 1054.72) rotate(-57.32)"/><rect class="cls-4" x="888.67" y="628.28" width="7.34" height="5.19" transform="translate(-120.48 1041.32) rotate(-57.32)"/><rect class="cls-4" x="905.45" y="636.38" width="7.34" height="10.56" transform="translate(-121.84 1060.41) rotate(-57.32)"/><rect class="cls-4" x="907.96" y="658.16" width="7.34" height="5.19" transform="translate(-136.76 1071.3) rotate(-57.32)"/><rect class="cls-4" x="881.58" y="656.03" width="7.34" height="10.56" transform="translate(-149.37 1049.36) rotate(-57.32)"/><rect class="cls-4" x="882.57" y="571.95" width="7.34" height="5.19" transform="translate(-75.88 1010.27) rotate(-57.32)"/><rect class="cls-4" x="881.89" y="551.33" width="7.34" height="10.56" transform="translate(-61.1 1001.45) rotate(-57.32)"/><rect class="cls-4" x="891.74" y="586.58" width="7.34" height="5.19" transform="translate(-83.97 1024.72) rotate(-57.32)"/><rect class="cls-4" x="906.86" y="578.76" width="7.34" height="5.19" transform="translate(-70.44 1033.85) rotate(-57.32)"/><rect class="cls-4" x="315.4" y="241.09" width="7.34" height="10.56" transform="translate(-60.58 381.9) rotate(-57.32)"/><rect class="cls-4" x="294.85" y="230.15" width="7.34" height="5.19" transform="translate(-58.57 358.34) rotate(-57.32)"/><rect class="cls-4" x="335.92" y="247.39" width="7.34" height="5.19" transform="translate(-54.19 400.84) rotate(-57.32)"/><rect class="cls-4" x="303.74" y="207.07" width="7.34" height="10.56" transform="translate(-37.31 356.44) rotate(-57.32)"/><rect class="cls-4" x="265.54" y="228.67" width="7.34" height="5.19" transform="translate(-70.8 332.99) rotate(-57.32)"/><rect class="cls-4" x="291.09" y="242.57" width="7.34" height="10.56" transform="translate(-73.01 362.12) rotate(-57.32)"/><rect class="cls-4" x="271.6" y="250.22" width="7.34" height="5.19" transform="translate(-86.15 348) rotate(-57.32)"/><rect class="cls-4" x="234.2" y="240.91" width="7.34" height="10.56" transform="translate(-97.79 313.47) rotate(-57.32)"/><rect class="cls-4" x="321.5" y="212.45" width="7.34" height="5.19" transform="translate(-31.41 372.63) rotate(-57.32)"/><rect class="cls-4" x="336.39" y="201.7" width="7.34" height="10.56" transform="translate(-17.77 381.45) rotate(-57.32)"/><rect class="cls-4" x="345.79" y="219.08" width="7.34" height="5.19" transform="translate(-25.82 396.12) rotate(-57.32)"/><path class="cls-4" d="M770,478.25a263.67,263.67,0,0,1-14.68,104l89.51,57.65,3.94-6.27,19.69,12.71,3.94-6.27-9.13-5.72,4.11-6.27-13.6-8.77,3.94-6.09,5.55,3.58,3.93-6.26-16.11-10.39,3.94-6.08-8.23-5.37,3.93-6.09,3.41,2.15,3.93-6.27L846.24,571l3.94-6.26,23.09,15,3.94-6.27-35.8-23.63,3.93-6.09,22.92,14.68,3.94-6.26-38.13-24.35,3.93-6.27Z"/><path class="cls-4" d="M367.72,220.11h0l-9.31-5.91-3.94,6.09,19.34,12.53-3.94,6.8-12.53-8.06-3.94,6.09-8.77-5.55-3.94,6.09-4.83-3.05-4.12,6.09,40.64,26A273.59,273.59,0,0,1,411,249.29Z"/><path class="cls-4" d="M322.61,304.6a266.63,266.63,0,0,1,35.8-28.82h0L331.2,257.52l-4.12,6.27,3.23,2-4.12,6.08-24-15.75-4.12,6.26L305.6,267l-3.94,6.27L297.9,271,294,277l-39-25.06-4.65,5.55L295,286.16h0Z"/><rect class="cls-5" x="771.34" y="742.64" width="7.34" height="10.56" transform="translate(-272.98 996.41) rotate(-57.32)"/><rect class="cls-5" x="736.59" y="748.92" width="7.34" height="5.19" transform="translate(-291.99 968.82) rotate(-57.32)"/><rect class="cls-5" x="733.88" y="764.67" width="7.34" height="5.19" transform="translate(-306.49 973.78) rotate(-57.32)"/><rect class="cls-5" x="721.15" y="771.12" width="7.34" height="10.56" transform="translate(-320.04 967.26) rotate(-57.32)"/><rect class="cls-5" x="787.23" y="746.8" width="7.34" height="5.19" transform="translate(-266.91 1010.46) rotate(-57.32)"/><rect class="cls-5" x="801.95" y="735.75" width="7.34" height="10.56" transform="matrix(0.54, -0.84, 0.84, 0.54, -253.1, 1019)"/><rect class="cls-5" x="750.37" y="748.93" width="7.34" height="5.19" transform="translate(-285.66 980.42) rotate(-57.32)"/><rect class="cls-5" x="767.15" y="757.03" width="7.34" height="10.56" transform="translate(-287.02 999.5) rotate(-57.32)"/><rect class="cls-5" x="769.66" y="778.8" width="7.34" height="5.19" transform="translate(-301.93 1010.39) rotate(-57.32)"/><rect class="cls-5" x="741.17" y="775.21" width="7.34" height="10.56" transform="translate(-314.27 986) rotate(-57.32)"/><rect class="cls-5" x="189.36" y="386.81" width="7.34" height="10.56" transform="translate(-241.22 342.85) rotate(-57.32)"/><rect class="cls-5" x="189.44" y="371.71" width="7.34" height="5.19" transform="matrix(0.54, -0.84, 0.84, 0.54, -226.22, 334.74)"/><rect class="cls-5" x="171.22" y="348.46" width="7.34" height="10.56" transform="translate(-217.29 309.95) rotate(-57.32)"/><rect class="cls-5" x="166.44" y="374.94" width="7.34" height="5.19" transform="translate(-239.51 316.87) rotate(-57.32)"/><rect class="cls-5" x="165.05" y="388.3" width="7.34" height="10.56" transform="translate(-253.66 323.07) rotate(-57.32)"/><rect class="cls-5" x="150.11" y="398.8" width="7.34" height="5.19" transform="translate(-267.11 314.1) rotate(-57.32)"/><rect class="cls-5" x="165.84" y="423.71" width="7.34" height="10.56" transform="translate(-283.1 340.04) rotate(-57.32)"/><rect class="cls-5" x="186.55" y="352.28" width="7.34" height="5.19" transform="translate(-211.19 323.37) rotate(-57.32)"/><rect class="cls-5" x="155.1" y="320.71" width="7.34" height="10.56" transform="translate(-201.34 283.61) rotate(-57.32)"/><rect class="cls-5" x="181.93" y="340.69" width="7.34" height="5.19" transform="translate(-203.56 314.15) rotate(-57.32)"/><rect class="cls-5" x="145.62" y="378.46" width="7.34" height="5.19" transform="translate(-252.05 300.97) rotate(-57.32)"/><rect class="cls-5" x="173.98" y="414.15" width="7.34" height="5.19" transform="translate(-269.05 341.25) rotate(-57.32)"/><path class="cls-5" d="M173.13,322.15l-3.94,7,43.5,26.67-3.94,6.27-8.23-5.37L196.58,363l32.22,20.77-3.94,6.09-7.34-4.66-4.11,6.09L207,387.13,203,393.22l49.41,31.68a280.73,280.73,0,0,1,14-42.07Z"/><path class="cls-5" d="M655.05,712.77a275.51,275.51,0,0,1-26,15.39L649,740.87h0l15.4,9.85,3.93-6.09,39.57,25.24,3.94-6.08-39.39-25.24,3.94-6.27,41,26.49,3.93-6.26-11.63-7.34,3.94-6.27,12.89,8.24,3.93-6.27-17.9-11.81,3.94-6.09,35.8,22.91,3.94-6.26L749,735.14l3.94-6.26,17.9,11.63,3.94-6.08,7.52,4.83,4.12-6.26-15.4-10,4.12-6.27L731.85,689l3.93-6.27-27.21-17.9A269.61,269.61,0,0,1,655.05,712.77Z"/><path class="cls-5" d="M248.5,431.89l-6.63-4.3-4.12,6.09-37.23-23.81L196.58,416l-4.3-2.68-4.11,6.08,14.14,9.13-3.94,6.09,15.22,9.85-3.94,6.08-2.51-1.61-3.94,6.27,39.21,25.24a271.44,271.44,0,0,1,7.7-51Z"/></g><g id="forground-color"><path class="cls-6" d="M409.61,723a250.65,250.65,0,0,0,179,4.83L254.76,513A251.69,251.69,0,0,0,409.61,723Z"/><path class="cls-7" d="M602.06,257.52a250.69,250.69,0,0,0-189.23,0L757.45,477.89A251.89,251.89,0,0,0,602.06,257.52Z"/><path class="cls-8" d="M269.44,404.85a250.62,250.62,0,0,0-14,109.21l333.15,214.1a250.56,250.56,0,0,0,94-58.9Z"/><path class="cls-9" d="M318.67,322.68a249.33,249.33,0,0,0-45.29,71.61c-1.43,3.4-2.69,6.8-3.94,10.21L682.62,669.26a251.76,251.76,0,0,0,53.7-79.12Z"/><path class="cls-10" d="M738.65,586.74a252.27,252.27,0,0,0,17.9-108.85L412.83,257.52a250.72,250.72,0,0,0-94.16,65.7L736.86,591.75A40.35,40.35,0,0,1,738.65,586.74Z"/></g><path id="magnifying_glass" data-name="magnifying glass" d="M728.44,343.27c-84-122.2-251.21-153.15-373.41-69.12C237.79,354.77,203.78,512.84,277.5,634.54l-46,31.5a29.9,29.9,0,0,0-39.39-3.94L55.15,755.19a29.73,29.73,0,0,0-9.13,41l15.4,22.73A29.89,29.89,0,0,0,103,825.37l136.77-93.09a29.88,29.88,0,0,0,10.92-37.95l46.55-31.69c92.9,115.6,261.92,134,377.52,41.1C783.9,616,807.29,459.05,728.44,343.27ZM623.18,665.51C528.45,730,399.39,705.43,334.92,610.7S295,386.9,389.73,322.43,613.53,282.51,678,377.24l.15.22c64.32,94.85,39.74,223.86-55,288.4Z"/></svg>