<svg width="16" height="16" viewBox="0 0 16 16" fill="none" xmlns="http://www.w3.org/2000/svg">
<rect width="1" height="1" transform="matrix(-1 0 0 1 11 6)" fill="#0288D1"/>
<rect width="1" height="1" transform="matrix(-1 0 0 1 11 7)" fill="#0288D1"/>
<rect width="1" height="1" transform="matrix(-1 0 0 1 11 8)" fill="#0288D1"/>
<rect width="1" height="1" transform="matrix(-1 0 0 1 11 9)" fill="#0288D1"/>
<rect width="1" height="1" transform="matrix(-1 0 0 1 11 10)" fill="#0288D1"/>
<rect width="1" height="1" transform="matrix(-1 0 0 1 10 11)" fill="#0288D1"/>
<rect width="1" height="1" transform="matrix(-1 0 0 1 10 12)" fill="#0288D1"/>
<rect width="1" height="1" transform="matrix(-1 0 0 1 10 13)" fill="#0288D1"/>
<rect width="1" height="1" transform="matrix(-1 0 0 1 9 14)" fill="#0288D1"/>
<rect width="1" height="1" transform="matrix(-1 0 0 1 8 14)" fill="#0288D1"/>
<rect width="1" height="1" transform="matrix(-1 0 0 1 7 13)" fill="#0288D1"/>
<rect width="1" height="1" transform="matrix(-1 0 0 1 7 12)" fill="#0288D1"/>
<rect width="1" height="1" transform="matrix(-1 0 0 1 7 11)" fill="#0288D1"/>
<rect width="1" height="1" transform="matrix(-1 0 0 1 6 10)" fill="#0288D1"/>
<rect width="1" height="1" transform="matrix(-1 0 0 1 6 9)" fill="#0288D1"/>
<rect width="1" height="1" transform="matrix(-1 0 0 1 6 8)" fill="#0288D1"/>
<rect width="1" height="1" transform="matrix(-1 0 0 1 6 7)" fill="#0288D1"/>
<rect width="1" height="1" transform="matrix(-1 0 0 1 6 6)" fill="#0288D1"/>
<rect width="1" height="1" transform="matrix(-1 0 0 1 7 5)" fill="#0288D1"/>
<rect width="1" height="1" transform="matrix(-1 0 0 1 8 5)" fill="#0288D1"/>
<rect width="1" height="1" transform="matrix(-1 0 0 1 9 5)" fill="#0288D1"/>
<rect width="1" height="1" transform="matrix(-1 0 0 1 10 5)" fill="#0288D1"/>
<rect width="1" height="1" transform="matrix(-1 0 0 1 9 4)" fill="#0288D1"/>
<rect width="1" height="1" transform="matrix(-1 0 0 1 13 6)" fill="#0288D1"/>
<rect width="1" height="1" transform="matrix(-1 0 0 1 14 6)" fill="#0288D1"/>
<rect width="1" height="1" transform="matrix(-1 0 0 1 15 7)" fill="#0288D1"/>
<rect width="1" height="1" transform="matrix(-1 0 0 1 15 8)" fill="#0288D1"/>
<rect width="1" height="1" transform="matrix(-1 0 0 1 15 9)" fill="#0288D1"/>
<rect width="1" height="1" transform="matrix(-1 0 0 1 14 10)" fill="#0288D1"/>
<rect width="1" height="1" transform="matrix(-1 0 0 1 14 11)" fill="#0288D1"/>
<rect width="1" height="1" transform="matrix(-1 0 0 1 14 12)" fill="#0288D1"/>
<rect width="1" height="1" transform="matrix(-1 0 0 1 13 13)" fill="#0288D1"/>
<rect width="1" height="1" transform="matrix(-1 0 0 1 12 13)" fill="#0288D1"/>
<rect x="3" y="6" width="1" height="1" fill="#0288D1"/>
<rect x="3" y="5" width="1" height="1" fill="#0288D1"/>
<rect x="2" y="4" width="1" height="1" fill="#0288D1"/>
<rect x="2" y="3" width="1" height="1" fill="#0288D1"/>
<rect x="3" y="2" width="1" height="1" fill="#0288D1"/>
<rect x="4" y="2" width="1" height="1" fill="#0288D1"/>
<rect width="1" height="1" transform="matrix(-1 0 0 1 13 5)" fill="#0288D1"/>
<rect width="1" height="1" transform="matrix(-1 0 0 1 14 4)" fill="#0288D1"/>
<rect width="1" height="1" transform="matrix(-1 0 0 1 14 3)" fill="#0288D1"/>
<rect width="1" height="1" transform="matrix(-1 0 0 1 13 2)" fill="#0288D1"/>
<rect width="1" height="1" transform="matrix(-1 0 0 1 12 2)" fill="#0288D1"/>
<rect x="2" y="6" width="1" height="1" fill="#0288D1"/>
<rect x="1" y="7" width="1" height="1" fill="#0288D1"/>
<rect x="1" y="8" width="1" height="1" fill="#0288D1"/>
<rect x="1" y="9" width="1" height="1" fill="#0288D1"/>
<rect x="2" y="10" width="1" height="1" fill="#0288D1"/>
<rect x="2" y="11" width="1" height="1" fill="#0288D1"/>
<rect x="2" y="12" width="1" height="1" fill="#0288D1"/>
<rect x="3" y="13" width="1" height="1" fill="#0288D1"/>
<rect x="4" y="13" width="1" height="1" fill="#0288D1"/>
<rect width="1" height="1" transform="matrix(-1 0 0 1 8 4)" fill="#0288D1"/>
<rect width="1" height="1" transform="matrix(-1 0 0 1 7 3)" fill="#0288D1"/>
<rect width="1" height="1" transform="matrix(-1 0 0 1 7 2)" fill="#0288D1"/>
<rect width="1" height="1" transform="matrix(-1 0 0 1 8 1)" fill="#0288D1"/>
<rect width="1" height="1" transform="matrix(-1 0 0 1 9 1)" fill="#0288D1"/>
<rect width="1" height="1" transform="matrix(-1 0 0 1 10 2)" fill="#0288D1"/>
<rect width="1" height="1" transform="matrix(-1 0 0 1 10 3)" fill="#0288D1"/>
</svg>
